# xmcd
#
# Track frame offsets:
#   150
#   17221
#   37047
#   52996
#   70091
#   87870
#   100586
#   120311
#   135924
#   147714
#   173153
#   188689
#   211554
#   232681
#   250322
#   266167
#
# Disc length: 3742 seconds
#
# Revision: 0
# Processed by: cddbd v1.5.2PL0 Copyright (c) Steve Scherf et al.
# Submitted via: uFREEDB ActiveX Control 1.5
#
DISCID=cf0e9c10
DTITLE=Vava Ribeiro - Ao Vivo
DYEAR=1900
DGENRE=Disco
TTITLE0=Coração de Feira
TTITLE1=Mimar Você
TTITLE2=Bossa Nossa
TTITLE3=Nau Cometa
TTITLE4=E eu
TTITLE5=Caminhso de Sol
TTITLE6=Nós Dois
TTITLE7=Você vai ver
TTITLE8=Céu de Santo Amaro
TTITLE9=Fênix
TTITLE10=Calmaria
TTITLE11=10 prás 11 (na central)
TTITLE12=Ancorado
TTITLE13=Mas eu Quero
TTITLE14=O Torto
TTITLE15=Muzenza do Reggae
EXTD=
EXTT0=
EXTT1=
EXTT2=
EXTT3=
EXTT4=
EXTT5=
EXTT6=
EXTT7=
EXTT8=
EXTT9=
EXTT10=
EXTT11=
EXTT12=
EXTT13=
EXTT14=
EXTT15=
PLAYORDER=
